<svg xmlns="http://www.w3.org/2000/svg" xmlns:xlink="http://www.w3.org/1999/xlink" fill="none" version="1.1" width="104" height="40" viewBox="0 0 104 40"><defs><clipPath id="master_svg0_2_379"><rect x="42" y="11" width="20" height="16" rx="0"/></clipPath></defs><g><rect x="0" y="0" width="104" height="40" rx="12" fill="#333333" fill-opacity="1" style="mix-blend-mode:passthrough"/><g clip-path="url(#master_svg0_2_379)"><g transform="matrix(1,0,0,-1,0,54.6875)"><g><path d="M52,43.34375Q52.4375,43.34375,52.7188,43.06255Q53,42.78125,53,42.34375L53,40.34375L56.75,40.34375Q57.7188,40.31255,58.3438,39.68755Q58.9688,39.06255,59,38.09375L59,29.59375Q58.9688,28.625,58.3438,28Q57.7188,27.375,56.75,27.34375L47.25,27.34375Q46.28125,27.375,45.65625,28Q45.03125,28.625,45,29.59375L45,38.09375Q45.03125,39.06255,45.65625,39.68755Q46.28125,40.31255,47.25,40.34375L51,40.34375L51,42.34375Q51,42.78125,51.28125,43.06255Q51.5625,43.34375,52,43.34375ZM48.5,31.34375Q48.03125,31.3125,48,30.84375Q48.03125,30.375,48.5,30.34375L49.5,30.34375Q49.96875,30.375,50,30.84375Q49.96875,31.3125,49.5,31.34375L48.5,31.34375ZM51.5,31.34375Q51.03125,31.3125,51,30.84375Q51.03125,30.375,51.5,30.34375L52.5,30.34375Q52.9688,30.375,53,30.84375Q52.9688,31.3125,52.5,31.34375L51.5,31.34375ZM54.5,31.34375Q54.0312,31.3125,54,30.84375Q54.0312,30.375,54.5,30.34375L55.5,30.34375Q55.9688,30.375,56,30.84375Q55.9688,31.3125,55.5,31.34375L54.5,31.34375ZM50.25,35.34375Q50.21875,36.0625,49.625,36.4375Q49,36.75,48.375,36.4375Q47.78125,36.0625,47.75,35.34375Q47.78125,34.625,48.375,34.25Q49,33.9375,49.625,34.25Q50.21875,34.625,50.25,35.34375ZM55,34.09375Q55.7188,34.125,56.0938,34.71875Q56.4062,35.34375,56.0938,35.96875Q55.7188,36.5625,55,36.59375Q54.2812,36.5625,53.9062,35.96875Q53.5938,35.34375,53.9062,34.71875Q54.2812,34.125,55,34.09375ZM43.5,36.34375L44,36.34375L43.5,36.34375L44,36.34375L44,30.34375L43.5,30.34375Q42.875,30.375,42.4375,30.78125Q42.03125,31.21875,42,31.84375L42,34.84375Q42.03125,35.46875,42.4375,35.90625Q42.875,36.3125,43.5,36.34375ZM60.5,36.34375Q61.125,36.3125,61.5625,35.90625Q61.9688,35.46875,62,34.84375L62,31.84375Q61.9688,31.21875,61.5625,30.78125Q61.125,30.375,60.5,30.34375L60,30.34375L60,36.34375L60.5,36.34375Z" fill="#FFFFFF" fill-opacity="1" style="mix-blend-mode:passthrough"/></g></g></g></g></svg>