<svg xmlns="http://www.w3.org/2000/svg" xmlns:xlink="http://www.w3.org/1999/xlink" fill="none" version="1.1" width="16" height="16" viewBox="0 0 16 16"><defs><clipPath id="master_svg0_2_369"><rect x="0" y="0" width="16" height="16" rx="0"/></clipPath></defs><g clip-path="url(#master_svg0_2_369)"><g transform="matrix(1,0,0,-1,0,32.6875)"><g><path d="M5.5,31.59375Q5.4375,32.28125,4.75,32.34375Q4.0625,32.28125,4,31.59375L4,30.34375Q3.15625,30.31255,2.59375,29.74995Q2.03125,29.18755,2,28.34375L0.75,28.34375Q0.0625,28.28125,0,27.59375Q0.0625,26.90625,0.75,26.84375L2,26.84375L2,25.09375L0.75,25.09375Q0.0625,25.03125,0,24.34375Q0.0625,23.65625,0.75,23.59375L2,23.59375L2,21.84375L0.75,21.84375Q0.0625,21.78125,0,21.09375Q0.0625,20.40625,0.75,20.34375L2,20.34375Q2.03125,19.5,2.59375,18.9375Q3.15625,18.375,4,18.34375L4,17.09375Q4.0625,16.40625,4.75,16.34375Q5.4375,16.40625,5.5,17.09375L5.5,18.34375L7.25,18.34375L7.25,17.09375Q7.3125,16.40625,8,16.34375Q8.6875,16.40625,8.75,17.09375L8.75,18.34375L10.5,18.34375L10.5,17.09375Q10.5625,16.40625,11.25,16.34375Q11.9375,16.40625,12,17.09375L12,18.34375Q12.8438,18.375,13.4062,18.9375Q13.9688,19.5,14,20.34375L15.25,20.34375Q15.9375,20.40625,16,21.09375Q15.9375,21.78125,15.25,21.84375L14,21.84375L14,23.59375L15.25,23.59375Q15.9375,23.65625,16,24.34375Q15.9375,25.03125,15.25,25.09375L14,25.09375L14,26.84375L15.25,26.84375Q15.9375,26.90625,16,27.59375Q15.9375,28.28125,15.25,28.34375L14,28.34375Q13.9688,29.18755,13.4062,29.74995Q12.8438,30.31255,12,30.34375L12,31.59375Q11.9375,32.28125,11.25,32.34375Q10.5625,32.28125,10.5,31.59375L10.5,30.34375L8.75,30.34375L8.75,31.59375Q8.6875,32.28125,8,32.34375Q7.3125,32.28125,7.25,31.59375L7.25,30.34375L5.5,30.34375L5.5,31.59375ZM5,28.34375L11,28.34375L5,28.34375L11,28.34375Q11.4375,28.34375,11.7188,28.06255Q12,27.78125,12,27.34375L12,21.34375Q12,20.90625,11.7188,20.625Q11.4375,20.34375,11,20.34375L5,20.34375Q4.5625,20.34375,4.28125,20.625Q4,20.90625,4,21.34375L4,27.34375Q4,27.78125,4.28125,28.06255Q4.5625,28.34375,5,28.34375ZM11,27.34375L5,27.34375L11,27.34375L5,27.34375L5,21.34375L11,21.34375L11,27.34375Z" fill="#FFFFFF" fill-opacity="1" style="mix-blend-mode:passthrough"/></g></g></g></svg>