<svg xmlns="http://www.w3.org/2000/svg" xmlns:xlink="http://www.w3.org/1999/xlink" fill="none" version="1.1" width="104" height="40" viewBox="0 0 104 40"><defs><clipPath id="master_svg0_2_374"><rect x="44" y="11" width="16" height="16" rx="0"/></clipPath></defs><g><rect x="0" y="0" width="104" height="40" rx="12" fill="#333333" fill-opacity="1" style="mix-blend-mode:passthrough"/><g clip-path="url(#master_svg0_2_374)"><g transform="matrix(1,0,0,-1,0,54.6875)"><g><path d="M49.75,43.34375Q50.5,43.31255,51,42.84375Q51.46875,42.34375,51.5,41.59375L51.5,29.09375Q51.46875,28.34375,51,27.84375Q50.5,27.375,49.75,27.34375Q49.0625,27.34375,48.5625,27.78125Q48.09375,28.21875,48,28.90625Q47.75,28.84375,47.5,28.84375Q46.65625,28.875,46.09375,29.4375Q45.53125,30,45.5,30.84375Q45.5,31.1875,45.625,31.5Q44.90625,31.78125,44.4375,32.40625Q44,33.03125,44,33.84375Q44,34.59375,44.40625,35.1875Q44.78125,35.78125,45.4375,36.09375Q45,36.625,45,37.34375Q45,38.06255,45.4375,38.59375Q45.875,39.12495,46.5625,39.31255Q46.5,39.56255,46.5,39.84375Q46.5,40.56255,46.9375,41.09375Q47.34375,41.59375,48,41.78125Q48.09375,42.46875,48.5625,42.90625Q49.0625,43.34375,49.75,43.34375ZM54.25,43.34375Q54.9375,43.34375,55.4375,42.90625Q55.9062,42.46875,56,41.78125Q56.6562,41.59375,57.0625,41.09375Q57.5,40.56255,57.5,39.84375Q57.5,39.56255,57.4375,39.31255Q58.125,39.12495,58.5625,38.59375Q59,38.06255,59,37.34375Q59,36.625,58.5625,36.09375Q59.2188,35.78125,59.5938,35.1875Q60,34.59375,60,33.84375Q60,33.03125,59.5625,32.40625Q59.0938,31.78125,58.375,31.5Q58.5,31.1875,58.5,30.84375Q58.4688,30,57.9062,29.4375Q57.3438,28.875,56.5,28.84375Q56.25,28.84375,56,28.90625Q55.9062,28.21875,55.4375,27.78125Q54.9375,27.34375,54.25,27.34375Q53.5,27.375,53,27.84375Q52.53125,28.34375,52.5,29.09375L52.5,41.59375Q52.53125,42.34375,53,42.84375Q53.5,43.31255,54.25,43.34375Z" fill="#FFFFFF" fill-opacity="1" style="mix-blend-mode:passthrough"/></g></g></g></g></svg>